<mxfile host="65bd71144e">
    <diagram id="bOU-jHop36DpfKw40Vhr" name="Pagina-1">
        <mxGraphModel dx="2027" dy="800" grid="0" gridSize="10" guides="1" tooltips="1" connect="1" arrows="1" fold="1" page="1" pageScale="1" pageWidth="827" pageHeight="1169" background="#ffffff" math="0" shadow="1">
            <root>
                <mxCell id="0"/>
                <mxCell id="1" parent="0"/>
                <mxCell id="2" value="Departments" style="shape=table;startSize=30;container=1;collapsible=0;childLayout=tableLayout;fixedRows=1;rowLines=0;fontStyle=1;align=center;labelBackgroundColor=#ffffff;labelBorderColor=#000000;fontColor=#000000;strokeColor=#000000;" parent="1" vertex="1">
                    <mxGeometry x="170" y="130" width="180" height="210" as="geometry"/>
                </mxCell>
                <mxCell id="3" value="" style="shape=partialRectangle;html=1;whiteSpace=wrap;collapsible=0;dropTarget=0;pointerEvents=0;fillColor=none;top=0;left=0;bottom=1;right=0;points=[[0,0.5],[1,0.5]];portConstraint=eastwest;labelBackgroundColor=#ffffff;labelBorderColor=#000000;fontColor=#000000;strokeColor=#000000;" parent="2" vertex="1">
                    <mxGeometry y="30" width="180" height="30" as="geometry"/>
                </mxCell>
                <mxCell id="4" value="PK&lt;span style=&quot;white-space: pre&quot;&gt;&#9;&lt;/span&gt;" style="shape=partialRectangle;html=1;whiteSpace=wrap;connectable=0;fillColor=none;top=0;left=0;bottom=0;right=0;overflow=hidden;labelBackgroundColor=#ffffff;labelBorderColor=#000000;fontColor=#000000;strokeColor=#000000;" parent="3" vertex="1">
                    <mxGeometry width="40" height="30" as="geometry"/>
                </mxCell>
                <mxCell id="5" value="ID" style="shape=partialRectangle;html=1;whiteSpace=wrap;connectable=0;fillColor=none;top=0;left=0;bottom=0;right=0;align=left;spacingLeft=6;overflow=hidden;labelBackgroundColor=#ffffff;labelBorderColor=#000000;fontColor=#000000;strokeColor=#000000;" parent="3" vertex="1">
                    <mxGeometry x="40" width="140" height="30" as="geometry"/>
                </mxCell>
                <mxCell id="6" value="" style="shape=partialRectangle;html=1;whiteSpace=wrap;collapsible=0;dropTarget=0;pointerEvents=0;fillColor=none;top=0;left=0;bottom=0;right=0;points=[[0,0.5],[1,0.5]];portConstraint=eastwest;labelBackgroundColor=#ffffff;labelBorderColor=#000000;fontColor=#000000;strokeColor=#000000;" parent="2" vertex="1">
                    <mxGeometry y="60" width="180" height="30" as="geometry"/>
                </mxCell>
                <mxCell id="7" value="" style="shape=partialRectangle;html=1;whiteSpace=wrap;connectable=0;fillColor=none;top=0;left=0;bottom=0;right=0;overflow=hidden;labelBackgroundColor=#ffffff;labelBorderColor=#000000;fontColor=#000000;strokeColor=#000000;" parent="6" vertex="1">
                    <mxGeometry width="40" height="30" as="geometry"/>
                </mxCell>
                <mxCell id="8" value="name" style="shape=partialRectangle;html=1;whiteSpace=wrap;connectable=0;fillColor=none;top=0;left=0;bottom=0;right=0;align=left;spacingLeft=6;overflow=hidden;labelBackgroundColor=#ffffff;labelBorderColor=#000000;fontColor=#000000;strokeColor=#000000;" parent="6" vertex="1">
                    <mxGeometry x="40" width="140" height="30" as="geometry"/>
                </mxCell>
                <mxCell id="9" value="" style="shape=partialRectangle;html=1;whiteSpace=wrap;collapsible=0;dropTarget=0;pointerEvents=0;fillColor=none;top=0;left=0;bottom=0;right=0;points=[[0,0.5],[1,0.5]];portConstraint=eastwest;labelBackgroundColor=#ffffff;labelBorderColor=#000000;fontColor=#000000;strokeColor=#000000;" parent="2" vertex="1">
                    <mxGeometry y="90" width="180" height="30" as="geometry"/>
                </mxCell>
                <mxCell id="10" value="" style="shape=partialRectangle;html=1;whiteSpace=wrap;connectable=0;fillColor=none;top=0;left=0;bottom=0;right=0;overflow=hidden;labelBackgroundColor=#ffffff;labelBorderColor=#000000;fontColor=#000000;strokeColor=#000000;" parent="9" vertex="1">
                    <mxGeometry width="40" height="30" as="geometry"/>
                </mxCell>
                <mxCell id="11" value="room" style="shape=partialRectangle;html=1;whiteSpace=wrap;connectable=0;fillColor=none;top=0;left=0;bottom=0;right=0;align=left;spacingLeft=6;overflow=hidden;labelBackgroundColor=#ffffff;labelBorderColor=#000000;fontColor=#000000;strokeColor=#000000;" parent="9" vertex="1">
                    <mxGeometry x="40" width="140" height="30" as="geometry"/>
                </mxCell>
                <mxCell id="13" value="" style="shape=partialRectangle;html=1;whiteSpace=wrap;collapsible=0;dropTarget=0;pointerEvents=0;fillColor=none;top=0;left=0;bottom=0;right=0;points=[[0,0.5],[1,0.5]];portConstraint=eastwest;labelBackgroundColor=#ffffff;labelBorderColor=#000000;fontColor=#000000;strokeColor=#000000;" parent="2" vertex="1">
                    <mxGeometry y="120" width="180" height="30" as="geometry"/>
                </mxCell>
                <mxCell id="14" value="" style="shape=partialRectangle;html=1;whiteSpace=wrap;connectable=0;fillColor=none;top=0;left=0;bottom=0;right=0;overflow=hidden;labelBackgroundColor=#ffffff;labelBorderColor=#000000;fontColor=#000000;strokeColor=#000000;" parent="13" vertex="1">
                    <mxGeometry width="40" height="30" as="geometry"/>
                </mxCell>
                <mxCell id="15" value="street" style="shape=partialRectangle;html=1;whiteSpace=wrap;connectable=0;fillColor=none;top=0;left=0;bottom=0;right=0;align=left;spacingLeft=6;overflow=hidden;labelBackgroundColor=#ffffff;labelBorderColor=#000000;fontColor=#000000;strokeColor=#000000;" parent="13" vertex="1">
                    <mxGeometry x="40" width="140" height="30" as="geometry"/>
                </mxCell>
                <mxCell id="26" value="" style="shape=partialRectangle;html=1;whiteSpace=wrap;collapsible=0;dropTarget=0;pointerEvents=0;fillColor=none;top=0;left=0;bottom=0;right=0;points=[[0,0.5],[1,0.5]];portConstraint=eastwest;labelBackgroundColor=#ffffff;labelBorderColor=#000000;fontColor=#000000;strokeColor=#000000;" parent="2" vertex="1">
                    <mxGeometry y="150" width="180" height="30" as="geometry"/>
                </mxCell>
                <mxCell id="27" value="" style="shape=partialRectangle;html=1;whiteSpace=wrap;connectable=0;fillColor=none;top=0;left=0;bottom=0;right=0;overflow=hidden;labelBackgroundColor=#ffffff;labelBorderColor=#000000;fontColor=#000000;strokeColor=#000000;" parent="26" vertex="1">
                    <mxGeometry width="40" height="30" as="geometry"/>
                </mxCell>
                <mxCell id="28" value="director" style="shape=partialRectangle;html=1;whiteSpace=wrap;connectable=0;fillColor=none;top=0;left=0;bottom=0;right=0;align=left;spacingLeft=6;overflow=hidden;labelBackgroundColor=#ffffff;labelBorderColor=#000000;fontColor=#000000;strokeColor=#000000;" parent="26" vertex="1">
                    <mxGeometry x="40" width="140" height="30" as="geometry"/>
                </mxCell>
                <mxCell id="12" value="UNIVERSITY" style="text;fillColor=none;html=1;fontSize=24;fontStyle=1;verticalAlign=middle;align=center;labelBackgroundColor=#ffffff;labelBorderColor=#000000;fontColor=#000000;strokeColor=#000000;" parent="1" vertex="1">
                    <mxGeometry x="210" y="50" width="100" height="40" as="geometry"/>
                </mxCell>
                <mxCell id="16" value="Degrees" style="shape=table;startSize=30;container=1;collapsible=0;childLayout=tableLayout;fixedRows=1;rowLines=0;fontStyle=1;align=center;labelBackgroundColor=#ffffff;labelBorderColor=#000000;fontColor=#000000;strokeColor=#000000;" parent="1" vertex="1">
                    <mxGeometry x="-170" y="300" width="180" height="270" as="geometry"/>
                </mxCell>
                <mxCell id="52" value="" style="shape=partialRectangle;html=1;whiteSpace=wrap;collapsible=0;dropTarget=0;pointerEvents=0;fillColor=none;top=0;left=0;bottom=1;right=0;points=[[0,0.5],[1,0.5]];portConstraint=eastwest;labelBackgroundColor=#ffffff;labelBorderColor=#000000;fontColor=#000000;strokeColor=#000000;" parent="16" vertex="1">
                    <mxGeometry y="30" width="180" height="30" as="geometry"/>
                </mxCell>
                <mxCell id="53" value="Pk" style="shape=partialRectangle;html=1;whiteSpace=wrap;connectable=0;fillColor=none;top=0;left=0;bottom=0;right=0;overflow=hidden;labelBackgroundColor=#ffffff;labelBorderColor=#000000;fontColor=#000000;strokeColor=#000000;" parent="52" vertex="1">
                    <mxGeometry width="40" height="30" as="geometry"/>
                </mxCell>
                <mxCell id="54" value="ID" style="shape=partialRectangle;html=1;whiteSpace=wrap;connectable=0;fillColor=none;top=0;left=0;bottom=0;right=0;align=left;spacingLeft=6;overflow=hidden;labelBackgroundColor=#ffffff;labelBorderColor=#000000;fontColor=#000000;strokeColor=#000000;" parent="52" vertex="1">
                    <mxGeometry x="40" width="140" height="30" as="geometry"/>
                </mxCell>
                <mxCell id="17" value="" style="shape=partialRectangle;html=1;whiteSpace=wrap;collapsible=0;dropTarget=0;pointerEvents=0;fillColor=none;top=0;left=0;bottom=1;right=0;points=[[0,0.5],[1,0.5]];portConstraint=eastwest;labelBackgroundColor=#ffffff;labelBorderColor=#000000;fontColor=#000000;strokeColor=#000000;" parent="16" vertex="1">
                    <mxGeometry y="60" width="180" height="30" as="geometry"/>
                </mxCell>
                <mxCell id="18" value="FK" style="shape=partialRectangle;html=1;whiteSpace=wrap;connectable=0;fillColor=none;top=0;left=0;bottom=0;right=0;overflow=hidden;labelBackgroundColor=#ffffff;labelBorderColor=#000000;fontColor=#000000;strokeColor=#000000;" parent="17" vertex="1">
                    <mxGeometry width="40" height="30" as="geometry"/>
                </mxCell>
                <mxCell id="19" value="Department_ID" style="shape=partialRectangle;html=1;whiteSpace=wrap;connectable=0;fillColor=none;top=0;left=0;bottom=0;right=0;align=left;spacingLeft=6;overflow=hidden;labelBackgroundColor=#ffffff;labelBorderColor=#000000;fontColor=#000000;strokeColor=#000000;" parent="17" vertex="1">
                    <mxGeometry x="40" width="140" height="30" as="geometry"/>
                </mxCell>
                <mxCell id="20" value="" style="shape=partialRectangle;html=1;whiteSpace=wrap;collapsible=0;dropTarget=0;pointerEvents=0;fillColor=none;top=0;left=0;bottom=0;right=0;points=[[0,0.5],[1,0.5]];portConstraint=eastwest;labelBackgroundColor=#ffffff;labelBorderColor=#000000;fontColor=#000000;strokeColor=#000000;" parent="16" vertex="1">
                    <mxGeometry y="90" width="180" height="30" as="geometry"/>
                </mxCell>
                <mxCell id="21" value="" style="shape=partialRectangle;html=1;whiteSpace=wrap;connectable=0;fillColor=none;top=0;left=0;bottom=0;right=0;overflow=hidden;labelBackgroundColor=#ffffff;labelBorderColor=#000000;fontColor=#000000;strokeColor=#000000;" parent="20" vertex="1">
                    <mxGeometry width="40" height="30" as="geometry"/>
                </mxCell>
                <mxCell id="22" value="name" style="shape=partialRectangle;html=1;whiteSpace=wrap;connectable=0;fillColor=none;top=0;left=0;bottom=0;right=0;align=left;spacingLeft=6;overflow=hidden;labelBackgroundColor=#ffffff;labelBorderColor=#000000;fontColor=#000000;strokeColor=#000000;" parent="20" vertex="1">
                    <mxGeometry x="40" width="140" height="30" as="geometry"/>
                </mxCell>
                <mxCell id="23" value="" style="shape=partialRectangle;html=1;whiteSpace=wrap;collapsible=0;dropTarget=0;pointerEvents=0;fillColor=none;top=0;left=0;bottom=0;right=0;points=[[0,0.5],[1,0.5]];portConstraint=eastwest;labelBackgroundColor=#ffffff;labelBorderColor=#000000;fontColor=#000000;strokeColor=#000000;" parent="16" vertex="1">
                    <mxGeometry y="120" width="180" height="30" as="geometry"/>
                </mxCell>
                <mxCell id="24" value="" style="shape=partialRectangle;html=1;whiteSpace=wrap;connectable=0;fillColor=none;top=0;left=0;bottom=0;right=0;overflow=hidden;labelBackgroundColor=#ffffff;labelBorderColor=#000000;fontColor=#000000;strokeColor=#000000;" parent="23" vertex="1">
                    <mxGeometry width="40" height="30" as="geometry"/>
                </mxCell>
                <mxCell id="25" value="tot_CFU" style="shape=partialRectangle;html=1;whiteSpace=wrap;connectable=0;fillColor=none;top=0;left=0;bottom=0;right=0;align=left;spacingLeft=6;overflow=hidden;labelBackgroundColor=#ffffff;labelBorderColor=#000000;fontColor=#000000;strokeColor=#000000;" parent="23" vertex="1">
                    <mxGeometry x="40" width="140" height="30" as="geometry"/>
                </mxCell>
                <mxCell id="30" value="" style="shape=partialRectangle;html=1;whiteSpace=wrap;collapsible=0;dropTarget=0;pointerEvents=0;fillColor=none;top=0;left=0;bottom=0;right=0;points=[[0,0.5],[1,0.5]];portConstraint=eastwest;labelBackgroundColor=#ffffff;labelBorderColor=#000000;fontColor=#000000;strokeColor=#000000;" parent="16" vertex="1">
                    <mxGeometry y="150" width="180" height="30" as="geometry"/>
                </mxCell>
                <mxCell id="31" value="" style="shape=partialRectangle;html=1;whiteSpace=wrap;connectable=0;fillColor=none;top=0;left=0;bottom=0;right=0;overflow=hidden;labelBackgroundColor=#ffffff;labelBorderColor=#000000;fontColor=#000000;strokeColor=#000000;" parent="30" vertex="1">
                    <mxGeometry width="40" height="30" as="geometry"/>
                </mxCell>
                <mxCell id="32" value="duration" style="shape=partialRectangle;html=1;whiteSpace=wrap;connectable=0;fillColor=none;top=0;left=0;bottom=0;right=0;align=left;spacingLeft=6;overflow=hidden;labelBackgroundColor=#ffffff;labelBorderColor=#000000;fontColor=#000000;strokeColor=#000000;" parent="30" vertex="1">
                    <mxGeometry x="40" width="140" height="30" as="geometry"/>
                </mxCell>
                <mxCell id="33" value="" style="shape=partialRectangle;html=1;whiteSpace=wrap;collapsible=0;dropTarget=0;pointerEvents=0;fillColor=none;top=0;left=0;bottom=0;right=0;points=[[0,0.5],[1,0.5]];portConstraint=eastwest;labelBackgroundColor=#ffffff;labelBorderColor=#000000;fontColor=#000000;strokeColor=#000000;" parent="16" vertex="1">
                    <mxGeometry y="180" width="180" height="30" as="geometry"/>
                </mxCell>
                <mxCell id="34" value="" style="shape=partialRectangle;html=1;whiteSpace=wrap;connectable=0;fillColor=none;top=0;left=0;bottom=0;right=0;overflow=hidden;labelBackgroundColor=#ffffff;labelBorderColor=#000000;fontColor=#000000;strokeColor=#000000;" parent="33" vertex="1">
                    <mxGeometry width="40" height="30" as="geometry"/>
                </mxCell>
                <mxCell id="35" value="code_muir" style="shape=partialRectangle;html=1;whiteSpace=wrap;connectable=0;fillColor=none;top=0;left=0;bottom=0;right=0;align=left;spacingLeft=6;overflow=hidden;labelBackgroundColor=#ffffff;labelBorderColor=#000000;fontColor=#000000;strokeColor=#000000;" parent="33" vertex="1">
                    <mxGeometry x="40" width="140" height="30" as="geometry"/>
                </mxCell>
                <mxCell id="36" value="" style="shape=partialRectangle;html=1;whiteSpace=wrap;collapsible=0;dropTarget=0;pointerEvents=0;fillColor=none;top=0;left=0;bottom=0;right=0;points=[[0,0.5],[1,0.5]];portConstraint=eastwest;labelBackgroundColor=#ffffff;labelBorderColor=#000000;fontColor=#000000;strokeColor=#000000;" parent="16" vertex="1">
                    <mxGeometry y="210" width="180" height="30" as="geometry"/>
                </mxCell>
                <mxCell id="37" value="" style="shape=partialRectangle;html=1;whiteSpace=wrap;connectable=0;fillColor=none;top=0;left=0;bottom=0;right=0;overflow=hidden;labelBackgroundColor=#ffffff;labelBorderColor=#000000;fontColor=#000000;strokeColor=#000000;" parent="36" vertex="1">
                    <mxGeometry width="40" height="30" as="geometry"/>
                </mxCell>
                <mxCell id="38" value="max_students" style="shape=partialRectangle;html=1;whiteSpace=wrap;connectable=0;fillColor=none;top=0;left=0;bottom=0;right=0;align=left;spacingLeft=6;overflow=hidden;labelBackgroundColor=#ffffff;labelBorderColor=#000000;fontColor=#000000;strokeColor=#000000;" parent="36" vertex="1">
                    <mxGeometry x="40" width="140" height="30" as="geometry"/>
                </mxCell>
                <mxCell id="43" style="edgeStyle=orthogonalEdgeStyle;rounded=0;orthogonalLoop=1;jettySize=auto;html=1;startArrow=none;endArrow=none;endFill=0;labelBackgroundColor=#ffffff;labelBorderColor=#000000;fontColor=#000000;strokeColor=#000000;" parent="1" source="44" edge="1">
                    <mxGeometry relative="1" as="geometry">
                        <mxPoint x="260" y="340" as="targetPoint"/>
                    </mxGeometry>
                </mxCell>
                <mxCell id="44" value="" style="rhombus;whiteSpace=wrap;html=1;labelBackgroundColor=#ffffff;labelBorderColor=#000000;fontColor=#000000;strokeColor=#000000;" parent="1" vertex="1">
                    <mxGeometry x="220" y="440" width="80" height="80" as="geometry"/>
                </mxCell>
                <mxCell id="45" value="" style="edgeStyle=orthogonalEdgeStyle;rounded=0;orthogonalLoop=1;jettySize=auto;html=1;entryX=0.5;entryY=1;entryDx=0;entryDy=0;endArrow=none;labelBackgroundColor=#ffffff;labelBorderColor=#000000;fontColor=#000000;strokeColor=#000000;" parent="1" target="44" edge="1">
                    <mxGeometry relative="1" as="geometry">
                        <mxPoint x="10" y="550" as="sourcePoint"/>
                        <mxPoint x="60" y="400" as="targetPoint"/>
                        <Array as="points">
                            <mxPoint x="260" y="550"/>
                        </Array>
                    </mxGeometry>
                </mxCell>
                <mxCell id="48" value="&lt;font style=&quot;font-size: 26px&quot;&gt;*&lt;/font&gt;" style="text;html=1;fillColor=none;align=center;verticalAlign=middle;whiteSpace=wrap;rounded=0;labelBackgroundColor=#ffffff;labelBorderColor=#000000;fontColor=#000000;strokeColor=#000000;" parent="1" vertex="1">
                    <mxGeometry x="20" y="520" width="40" height="20" as="geometry"/>
                </mxCell>
                <mxCell id="51" value="1" style="text;html=1;fillColor=none;align=center;verticalAlign=middle;whiteSpace=wrap;rounded=0;labelBackgroundColor=#ffffff;labelBorderColor=#000000;fontColor=#000000;strokeColor=#000000;" parent="1" vertex="1">
                    <mxGeometry x="170" y="350" width="40" height="20" as="geometry"/>
                </mxCell>
                <mxCell id="55" value="Courses" style="shape=table;startSize=30;container=1;collapsible=0;childLayout=tableLayout;fixedRows=1;rowLines=0;fontStyle=1;align=center;labelBackgroundColor=#ffffff;labelBorderColor=#000000;fontColor=#000000;strokeColor=#000000;" parent="1" vertex="1">
                    <mxGeometry x="-160" y="640" width="180" height="210" as="geometry"/>
                </mxCell>
                <mxCell id="56" value="" style="shape=partialRectangle;html=1;whiteSpace=wrap;collapsible=0;dropTarget=0;pointerEvents=0;fillColor=none;top=0;left=0;bottom=1;right=0;points=[[0,0.5],[1,0.5]];portConstraint=eastwest;labelBackgroundColor=#ffffff;labelBorderColor=#000000;fontColor=#000000;strokeColor=#000000;" parent="55" vertex="1">
                    <mxGeometry y="30" width="180" height="30" as="geometry"/>
                </mxCell>
                <mxCell id="57" value="Pk" style="shape=partialRectangle;html=1;whiteSpace=wrap;connectable=0;fillColor=none;top=0;left=0;bottom=0;right=0;overflow=hidden;labelBackgroundColor=#ffffff;labelBorderColor=#000000;fontColor=#000000;strokeColor=#000000;" parent="56" vertex="1">
                    <mxGeometry width="40" height="30" as="geometry"/>
                </mxCell>
                <mxCell id="58" value="ID" style="shape=partialRectangle;html=1;whiteSpace=wrap;connectable=0;fillColor=none;top=0;left=0;bottom=0;right=0;align=left;spacingLeft=6;overflow=hidden;labelBackgroundColor=#ffffff;labelBorderColor=#000000;fontColor=#000000;strokeColor=#000000;" parent="56" vertex="1">
                    <mxGeometry x="40" width="140" height="30" as="geometry"/>
                </mxCell>
                <mxCell id="77" value="" style="shape=partialRectangle;html=1;whiteSpace=wrap;collapsible=0;dropTarget=0;pointerEvents=0;fillColor=none;top=0;left=0;bottom=1;right=0;points=[[0,0.5],[1,0.5]];portConstraint=eastwest;labelBackgroundColor=#ffffff;labelBorderColor=#000000;fontColor=#000000;strokeColor=#000000;" parent="55" vertex="1">
                    <mxGeometry y="60" width="180" height="30" as="geometry"/>
                </mxCell>
                <mxCell id="78" value="Fk" style="shape=partialRectangle;html=1;whiteSpace=wrap;connectable=0;fillColor=none;top=0;left=0;bottom=0;right=0;overflow=hidden;labelBackgroundColor=#ffffff;labelBorderColor=#000000;fontColor=#000000;strokeColor=#000000;" parent="77" vertex="1">
                    <mxGeometry width="40" height="30" as="geometry"/>
                </mxCell>
                <mxCell id="79" value="Degree_ID" style="shape=partialRectangle;html=1;whiteSpace=wrap;connectable=0;fillColor=none;top=0;left=0;bottom=0;right=0;align=left;spacingLeft=6;overflow=hidden;labelBackgroundColor=#ffffff;labelBorderColor=#000000;fontColor=#000000;strokeColor=#000000;" parent="77" vertex="1">
                    <mxGeometry x="40" width="140" height="30" as="geometry"/>
                </mxCell>
                <mxCell id="59" value="" style="shape=partialRectangle;html=1;whiteSpace=wrap;collapsible=0;dropTarget=0;pointerEvents=0;fillColor=none;top=0;left=0;bottom=0;right=0;points=[[0,0.5],[1,0.5]];portConstraint=eastwest;labelBackgroundColor=#ffffff;labelBorderColor=#000000;fontColor=#000000;strokeColor=#000000;" parent="55" vertex="1">
                    <mxGeometry y="90" width="180" height="30" as="geometry"/>
                </mxCell>
                <mxCell id="60" value="" style="shape=partialRectangle;html=1;whiteSpace=wrap;connectable=0;fillColor=none;top=0;left=0;bottom=0;right=0;overflow=hidden;labelBackgroundColor=#ffffff;labelBorderColor=#000000;fontColor=#000000;strokeColor=#000000;" parent="59" vertex="1">
                    <mxGeometry width="40" height="30" as="geometry"/>
                </mxCell>
                <mxCell id="61" value="name" style="shape=partialRectangle;html=1;whiteSpace=wrap;connectable=0;fillColor=none;top=0;left=0;bottom=0;right=0;align=left;spacingLeft=6;overflow=hidden;labelBackgroundColor=#ffffff;labelBorderColor=#000000;fontColor=#000000;strokeColor=#000000;" parent="59" vertex="1">
                    <mxGeometry x="40" width="140" height="30" as="geometry"/>
                </mxCell>
                <mxCell id="62" value="" style="shape=partialRectangle;html=1;whiteSpace=wrap;collapsible=0;dropTarget=0;pointerEvents=0;fillColor=none;top=0;left=0;bottom=0;right=0;points=[[0,0.5],[1,0.5]];portConstraint=eastwest;labelBackgroundColor=#ffffff;labelBorderColor=#000000;fontColor=#000000;strokeColor=#000000;" parent="55" vertex="1">
                    <mxGeometry y="120" width="180" height="30" as="geometry"/>
                </mxCell>
                <mxCell id="63" value="" style="shape=partialRectangle;html=1;whiteSpace=wrap;connectable=0;fillColor=none;top=0;left=0;bottom=0;right=0;overflow=hidden;labelBackgroundColor=#ffffff;labelBorderColor=#000000;fontColor=#000000;strokeColor=#000000;" parent="62" vertex="1">
                    <mxGeometry width="40" height="30" as="geometry"/>
                </mxCell>
                <mxCell id="64" value="cfu" style="shape=partialRectangle;html=1;whiteSpace=wrap;connectable=0;fillColor=none;top=0;left=0;bottom=0;right=0;align=left;spacingLeft=6;overflow=hidden;labelBackgroundColor=#ffffff;labelBorderColor=#000000;fontColor=#000000;strokeColor=#000000;" parent="62" vertex="1">
                    <mxGeometry x="40" width="140" height="30" as="geometry"/>
                </mxCell>
                <mxCell id="65" value="" style="shape=partialRectangle;html=1;whiteSpace=wrap;collapsible=0;dropTarget=0;pointerEvents=0;fillColor=none;top=0;left=0;bottom=0;right=0;points=[[0,0.5],[1,0.5]];portConstraint=eastwest;labelBackgroundColor=#ffffff;labelBorderColor=#000000;fontColor=#000000;strokeColor=#000000;" parent="55" vertex="1">
                    <mxGeometry y="150" width="180" height="30" as="geometry"/>
                </mxCell>
                <mxCell id="66" value="" style="shape=partialRectangle;html=1;whiteSpace=wrap;connectable=0;fillColor=none;top=0;left=0;bottom=0;right=0;overflow=hidden;labelBackgroundColor=#ffffff;labelBorderColor=#000000;fontColor=#000000;strokeColor=#000000;" parent="65" vertex="1">
                    <mxGeometry width="40" height="30" as="geometry"/>
                </mxCell>
                <mxCell id="67" value="code_muir" style="shape=partialRectangle;html=1;whiteSpace=wrap;connectable=0;fillColor=none;top=0;left=0;bottom=0;right=0;align=left;spacingLeft=6;overflow=hidden;labelBackgroundColor=#ffffff;labelBorderColor=#000000;fontColor=#000000;strokeColor=#000000;" parent="65" vertex="1">
                    <mxGeometry x="40" width="140" height="30" as="geometry"/>
                </mxCell>
                <mxCell id="72" style="edgeStyle=orthogonalEdgeStyle;rounded=0;orthogonalLoop=1;jettySize=auto;html=1;entryX=0;entryY=0.5;entryDx=0;entryDy=0;startArrow=none;endArrow=none;endFill=0;labelBackgroundColor=#ffffff;labelBorderColor=#000000;fontColor=#000000;strokeColor=#000000;" parent="1" source="73" target="23" edge="1">
                    <mxGeometry relative="1" as="geometry">
                        <Array as="points">
                            <mxPoint x="-280" y="435"/>
                        </Array>
                    </mxGeometry>
                </mxCell>
                <mxCell id="73" value="" style="rhombus;whiteSpace=wrap;html=1;labelBackgroundColor=#ffffff;labelBorderColor=#000000;fontColor=#000000;strokeColor=#000000;" parent="1" vertex="1">
                    <mxGeometry x="-320" y="520" width="80" height="80" as="geometry"/>
                </mxCell>
                <mxCell id="74" value="" style="edgeStyle=orthogonalEdgeStyle;rounded=0;orthogonalLoop=1;jettySize=auto;html=1;entryX=0.5;entryY=1;entryDx=0;entryDy=0;endArrow=none;labelBackgroundColor=#ffffff;labelBorderColor=#000000;fontColor=#000000;strokeColor=#000000;" parent="1" source="62" target="73" edge="1">
                    <mxGeometry relative="1" as="geometry">
                        <mxPoint x="-160" y="745" as="sourcePoint"/>
                        <mxPoint x="-170" y="435" as="targetPoint"/>
                        <Array as="points">
                            <mxPoint x="-160" y="745"/>
                            <mxPoint x="-280" y="745"/>
                        </Array>
                    </mxGeometry>
                </mxCell>
                <mxCell id="75" value="1" style="text;html=1;fillColor=none;align=center;verticalAlign=middle;whiteSpace=wrap;rounded=0;labelBackgroundColor=#ffffff;labelBorderColor=#000000;fontColor=#000000;strokeColor=#000000;" parent="1" vertex="1">
                    <mxGeometry x="-240" y="410" width="40" height="20" as="geometry"/>
                </mxCell>
                <mxCell id="76" value="&lt;font style=&quot;font-size: 26px&quot;&gt;*&lt;/font&gt;" style="text;html=1;fillColor=none;align=center;verticalAlign=middle;whiteSpace=wrap;rounded=0;labelBackgroundColor=#ffffff;labelBorderColor=#000000;fontColor=#000000;strokeColor=#000000;" parent="1" vertex="1">
                    <mxGeometry x="-220" y="720" width="40" height="20" as="geometry"/>
                </mxCell>
                <mxCell id="80" value="Teachers" style="shape=table;startSize=30;container=1;collapsible=0;childLayout=tableLayout;fixedRows=1;rowLines=0;fontStyle=1;align=center;labelBackgroundColor=#ffffff;labelBorderColor=#000000;fontColor=#000000;strokeColor=#000000;" parent="1" vertex="1">
                    <mxGeometry x="630" y="640" width="180" height="210" as="geometry"/>
                </mxCell>
                <mxCell id="81" value="" style="shape=partialRectangle;html=1;whiteSpace=wrap;collapsible=0;dropTarget=0;pointerEvents=0;fillColor=none;top=0;left=0;bottom=1;right=0;points=[[0,0.5],[1,0.5]];portConstraint=eastwest;labelBackgroundColor=#ffffff;labelBorderColor=#000000;fontColor=#000000;strokeColor=#000000;" parent="80" vertex="1">
                    <mxGeometry y="30" width="180" height="30" as="geometry"/>
                </mxCell>
                <mxCell id="82" value="PK" style="shape=partialRectangle;html=1;whiteSpace=wrap;connectable=0;fillColor=none;top=0;left=0;bottom=0;right=0;overflow=hidden;labelBackgroundColor=#ffffff;labelBorderColor=#000000;fontColor=#000000;strokeColor=#000000;" parent="81" vertex="1">
                    <mxGeometry width="40" height="30" as="geometry"/>
                </mxCell>
                <mxCell id="83" value="ID" style="shape=partialRectangle;html=1;whiteSpace=wrap;connectable=0;fillColor=none;top=0;left=0;bottom=0;right=0;align=left;spacingLeft=6;overflow=hidden;labelBackgroundColor=#ffffff;labelBorderColor=#000000;fontColor=#000000;strokeColor=#000000;" parent="81" vertex="1">
                    <mxGeometry x="40" width="140" height="30" as="geometry"/>
                </mxCell>
                <mxCell id="84" value="" style="shape=partialRectangle;html=1;whiteSpace=wrap;collapsible=0;dropTarget=0;pointerEvents=0;fillColor=none;top=0;left=0;bottom=0;right=0;points=[[0,0.5],[1,0.5]];portConstraint=eastwest;labelBackgroundColor=#ffffff;labelBorderColor=#000000;fontColor=#000000;strokeColor=#000000;" parent="80" vertex="1">
                    <mxGeometry y="60" width="180" height="30" as="geometry"/>
                </mxCell>
                <mxCell id="85" value="" style="shape=partialRectangle;html=1;whiteSpace=wrap;connectable=0;fillColor=none;top=0;left=0;bottom=0;right=0;overflow=hidden;labelBackgroundColor=#ffffff;labelBorderColor=#000000;fontColor=#000000;strokeColor=#000000;" parent="84" vertex="1">
                    <mxGeometry width="40" height="30" as="geometry"/>
                </mxCell>
                <mxCell id="86" value="Fisrt_name" style="shape=partialRectangle;html=1;whiteSpace=wrap;connectable=0;fillColor=none;top=0;left=0;bottom=0;right=0;align=left;spacingLeft=6;overflow=hidden;labelBackgroundColor=#ffffff;labelBorderColor=#000000;fontColor=#000000;strokeColor=#000000;" parent="84" vertex="1">
                    <mxGeometry x="40" width="140" height="30" as="geometry"/>
                </mxCell>
                <mxCell id="87" value="" style="shape=partialRectangle;html=1;whiteSpace=wrap;collapsible=0;dropTarget=0;pointerEvents=0;fillColor=none;top=0;left=0;bottom=0;right=0;points=[[0,0.5],[1,0.5]];portConstraint=eastwest;labelBackgroundColor=#ffffff;labelBorderColor=#000000;fontColor=#000000;strokeColor=#000000;" parent="80" vertex="1">
                    <mxGeometry y="90" width="180" height="30" as="geometry"/>
                </mxCell>
                <mxCell id="88" value="" style="shape=partialRectangle;html=1;whiteSpace=wrap;connectable=0;fillColor=none;top=0;left=0;bottom=0;right=0;overflow=hidden;labelBackgroundColor=#ffffff;labelBorderColor=#000000;fontColor=#000000;strokeColor=#000000;" parent="87" vertex="1">
                    <mxGeometry width="40" height="30" as="geometry"/>
                </mxCell>
                <mxCell id="89" value="Last_name" style="shape=partialRectangle;html=1;whiteSpace=wrap;connectable=0;fillColor=none;top=0;left=0;bottom=0;right=0;align=left;spacingLeft=6;overflow=hidden;labelBackgroundColor=#ffffff;labelBorderColor=#000000;fontColor=#000000;strokeColor=#000000;" parent="87" vertex="1">
                    <mxGeometry x="40" width="140" height="30" as="geometry"/>
                </mxCell>
                <mxCell id="90" value="" style="shape=partialRectangle;html=1;whiteSpace=wrap;collapsible=0;dropTarget=0;pointerEvents=0;fillColor=none;top=0;left=0;bottom=0;right=0;points=[[0,0.5],[1,0.5]];portConstraint=eastwest;labelBackgroundColor=#ffffff;labelBorderColor=#000000;fontColor=#000000;strokeColor=#000000;" parent="80" vertex="1">
                    <mxGeometry y="120" width="180" height="30" as="geometry"/>
                </mxCell>
                <mxCell id="91" value="" style="shape=partialRectangle;html=1;whiteSpace=wrap;connectable=0;fillColor=none;top=0;left=0;bottom=0;right=0;overflow=hidden;labelBackgroundColor=#ffffff;labelBorderColor=#000000;fontColor=#000000;strokeColor=#000000;" parent="90" vertex="1">
                    <mxGeometry width="40" height="30" as="geometry"/>
                </mxCell>
                <mxCell id="92" value="email" style="shape=partialRectangle;html=1;whiteSpace=wrap;connectable=0;fillColor=none;top=0;left=0;bottom=0;right=0;align=left;spacingLeft=6;overflow=hidden;labelBackgroundColor=#ffffff;labelBorderColor=#000000;fontColor=#000000;strokeColor=#000000;" parent="90" vertex="1">
                    <mxGeometry x="40" width="140" height="30" as="geometry"/>
                </mxCell>
                <mxCell id="93" value="" style="shape=partialRectangle;html=1;whiteSpace=wrap;collapsible=0;dropTarget=0;pointerEvents=0;fillColor=none;top=0;left=0;bottom=0;right=0;points=[[0,0.5],[1,0.5]];portConstraint=eastwest;labelBackgroundColor=#ffffff;labelBorderColor=#000000;fontColor=#000000;strokeColor=#000000;" parent="80" vertex="1">
                    <mxGeometry y="150" width="180" height="30" as="geometry"/>
                </mxCell>
                <mxCell id="94" value="" style="shape=partialRectangle;html=1;whiteSpace=wrap;connectable=0;fillColor=none;top=0;left=0;bottom=0;right=0;overflow=hidden;labelBackgroundColor=#ffffff;labelBorderColor=#000000;fontColor=#000000;strokeColor=#000000;" parent="93" vertex="1">
                    <mxGeometry width="40" height="30" as="geometry"/>
                </mxCell>
                <mxCell id="95" value="room" style="shape=partialRectangle;html=1;whiteSpace=wrap;connectable=0;fillColor=none;top=0;left=0;bottom=0;right=0;align=left;spacingLeft=6;overflow=hidden;labelBackgroundColor=#ffffff;labelBorderColor=#000000;fontColor=#000000;strokeColor=#000000;" parent="93" vertex="1">
                    <mxGeometry x="40" width="140" height="30" as="geometry"/>
                </mxCell>
                <mxCell id="96" style="edgeStyle=orthogonalEdgeStyle;rounded=0;orthogonalLoop=1;jettySize=auto;html=1;entryX=1;entryY=0.5;entryDx=0;entryDy=0;endArrow=none;endFill=0;labelBackgroundColor=#ffffff;labelBorderColor=#000000;fontColor=#000000;strokeColor=#000000;" parent="1" source="87" target="59" edge="1">
                    <mxGeometry relative="1" as="geometry"/>
                </mxCell>
                <mxCell id="97" value="" style="rhombus;whiteSpace=wrap;html=1;labelBackgroundColor=#ffffff;labelBorderColor=#000000;fontColor=#000000;strokeColor=#000000;" parent="1" vertex="1">
                    <mxGeometry x="370" y="705" width="80" height="80" as="geometry"/>
                </mxCell>
                <mxCell id="99" value="&lt;font style=&quot;font-size: 26px&quot;&gt;*&lt;/font&gt;" style="text;html=1;fillColor=none;align=center;verticalAlign=middle;whiteSpace=wrap;rounded=0;labelBackgroundColor=#ffffff;labelBorderColor=#000000;fontColor=#000000;strokeColor=#000000;" parent="1" vertex="1">
                    <mxGeometry x="30" y="720" width="40" height="20" as="geometry"/>
                </mxCell>
                <mxCell id="100" value="&lt;font style=&quot;font-size: 26px&quot;&gt;*&lt;/font&gt;" style="text;html=1;fillColor=none;align=center;verticalAlign=middle;whiteSpace=wrap;rounded=0;labelBackgroundColor=#ffffff;labelBorderColor=#000000;fontColor=#000000;strokeColor=#000000;" parent="1" vertex="1">
                    <mxGeometry x="580" y="720" width="40" height="20" as="geometry"/>
                </mxCell>
                <mxCell id="102" value="Course_Teacher" style="shape=table;startSize=30;container=1;collapsible=0;childLayout=tableLayout;fixedRows=1;rowLines=0;fontStyle=1;align=center;fillColor=#008a00;labelBackgroundColor=#ffffff;labelBorderColor=#000000;fontColor=#000000;strokeColor=#000000;" parent="1" vertex="1">
                    <mxGeometry x="310" y="800" width="180" height="120" as="geometry"/>
                </mxCell>
                <mxCell id="103" value="" style="shape=partialRectangle;html=1;whiteSpace=wrap;collapsible=0;dropTarget=0;pointerEvents=0;fillColor=none;top=0;left=0;bottom=1;right=0;points=[[0,0.5],[1,0.5]];portConstraint=eastwest;labelBackgroundColor=#ffffff;labelBorderColor=#000000;fontColor=#000000;strokeColor=#000000;" parent="102" vertex="1">
                    <mxGeometry y="30" width="180" height="30" as="geometry"/>
                </mxCell>
                <mxCell id="104" value="PK" style="shape=partialRectangle;html=1;whiteSpace=wrap;connectable=0;fillColor=none;top=0;left=0;bottom=0;right=0;overflow=hidden;labelBackgroundColor=#ffffff;labelBorderColor=#000000;fontColor=#000000;strokeColor=#000000;" parent="103" vertex="1">
                    <mxGeometry width="40" height="30" as="geometry"/>
                </mxCell>
                <mxCell id="105" value="Course_id" style="shape=partialRectangle;html=1;whiteSpace=wrap;connectable=0;fillColor=none;top=0;left=0;bottom=0;right=0;align=left;spacingLeft=6;overflow=hidden;labelBackgroundColor=#ffffff;labelBorderColor=#000000;fontColor=#000000;strokeColor=#000000;" parent="103" vertex="1">
                    <mxGeometry x="40" width="140" height="30" as="geometry"/>
                </mxCell>
                <mxCell id="112" value="" style="shape=partialRectangle;html=1;whiteSpace=wrap;collapsible=0;dropTarget=0;pointerEvents=0;fillColor=none;top=0;left=0;bottom=1;right=0;points=[[0,0.5],[1,0.5]];portConstraint=eastwest;labelBackgroundColor=#ffffff;labelBorderColor=#000000;fontColor=#000000;strokeColor=#000000;" parent="102" vertex="1">
                    <mxGeometry y="60" width="180" height="30" as="geometry"/>
                </mxCell>
                <mxCell id="113" value="PK" style="shape=partialRectangle;html=1;whiteSpace=wrap;connectable=0;fillColor=none;top=0;left=0;bottom=0;right=0;overflow=hidden;labelBackgroundColor=#ffffff;labelBorderColor=#000000;fontColor=#000000;strokeColor=#000000;" parent="112" vertex="1">
                    <mxGeometry width="40" height="30" as="geometry"/>
                </mxCell>
                <mxCell id="114" value="Teacher_id" style="shape=partialRectangle;html=1;whiteSpace=wrap;connectable=0;fillColor=none;top=0;left=0;bottom=0;right=0;align=left;spacingLeft=6;overflow=hidden;labelBackgroundColor=#ffffff;labelBorderColor=#000000;fontColor=#000000;strokeColor=#000000;" parent="112" vertex="1">
                    <mxGeometry x="40" width="140" height="30" as="geometry"/>
                </mxCell>
                <mxCell id="109" value="" style="shape=partialRectangle;html=1;whiteSpace=wrap;collapsible=0;dropTarget=0;pointerEvents=0;fillColor=none;top=0;left=0;bottom=0;right=0;points=[[0,0.5],[1,0.5]];portConstraint=eastwest;labelBackgroundColor=#ffffff;labelBorderColor=#000000;fontColor=#000000;strokeColor=#000000;" parent="102" vertex="1">
                    <mxGeometry y="90" width="180" height="30" as="geometry"/>
                </mxCell>
                <mxCell id="110" value="" style="shape=partialRectangle;html=1;whiteSpace=wrap;connectable=0;fillColor=none;top=0;left=0;bottom=0;right=0;overflow=hidden;labelBackgroundColor=#ffffff;labelBorderColor=#000000;fontColor=#000000;strokeColor=#000000;" parent="109" vertex="1">
                    <mxGeometry width="40" height="30" as="geometry"/>
                </mxCell>
                <mxCell id="111" value="hours" style="shape=partialRectangle;html=1;whiteSpace=wrap;connectable=0;fillColor=none;top=0;left=0;bottom=0;right=0;align=left;spacingLeft=6;overflow=hidden;labelBackgroundColor=#ffffff;labelBorderColor=#000000;fontColor=#000000;strokeColor=#000000;" parent="109" vertex="1">
                    <mxGeometry x="40" width="140" height="30" as="geometry"/>
                </mxCell>
                <mxCell id="118" value="Exam_sessions" style="shape=table;startSize=30;container=1;collapsible=0;childLayout=tableLayout;fixedRows=1;rowLines=0;fontStyle=1;align=center;labelBackgroundColor=#ffffff;labelBorderColor=#000000;fontColor=#000000;strokeColor=#000000;" parent="1" vertex="1">
                    <mxGeometry x="100" y="840" width="180" height="210" as="geometry"/>
                </mxCell>
                <mxCell id="119" value="" style="shape=partialRectangle;html=1;whiteSpace=wrap;collapsible=0;dropTarget=0;pointerEvents=0;fillColor=none;top=0;left=0;bottom=1;right=0;points=[[0,0.5],[1,0.5]];portConstraint=eastwest;labelBackgroundColor=#ffffff;labelBorderColor=#000000;fontColor=#000000;strokeColor=#000000;" parent="118" vertex="1">
                    <mxGeometry y="30" width="180" height="30" as="geometry"/>
                </mxCell>
                <mxCell id="120" value="Pk" style="shape=partialRectangle;html=1;whiteSpace=wrap;connectable=0;fillColor=none;top=0;left=0;bottom=0;right=0;overflow=hidden;labelBackgroundColor=#ffffff;labelBorderColor=#000000;fontColor=#000000;strokeColor=#000000;" parent="119" vertex="1">
                    <mxGeometry width="40" height="30" as="geometry"/>
                </mxCell>
                <mxCell id="121" value="ID" style="shape=partialRectangle;html=1;whiteSpace=wrap;connectable=0;fillColor=none;top=0;left=0;bottom=0;right=0;align=left;spacingLeft=6;overflow=hidden;labelBackgroundColor=#ffffff;labelBorderColor=#000000;fontColor=#000000;strokeColor=#000000;" parent="119" vertex="1">
                    <mxGeometry x="40" width="140" height="30" as="geometry"/>
                </mxCell>
                <mxCell id="141" value="" style="shape=partialRectangle;html=1;whiteSpace=wrap;collapsible=0;dropTarget=0;pointerEvents=0;fillColor=none;top=0;left=0;bottom=1;right=0;points=[[0,0.5],[1,0.5]];portConstraint=eastwest;labelBackgroundColor=#ffffff;labelBorderColor=#000000;fontColor=#000000;strokeColor=#000000;" parent="118" vertex="1">
                    <mxGeometry y="60" width="180" height="30" as="geometry"/>
                </mxCell>
                <mxCell id="142" value="Fk" style="shape=partialRectangle;html=1;whiteSpace=wrap;connectable=0;fillColor=none;top=0;left=0;bottom=0;right=0;overflow=hidden;labelBackgroundColor=#ffffff;labelBorderColor=#000000;fontColor=#000000;strokeColor=#000000;" parent="141" vertex="1">
                    <mxGeometry width="40" height="30" as="geometry"/>
                </mxCell>
                <mxCell id="143" value="Course_ID" style="shape=partialRectangle;html=1;whiteSpace=wrap;connectable=0;fillColor=none;top=0;left=0;bottom=0;right=0;align=left;spacingLeft=6;overflow=hidden;labelBackgroundColor=#ffffff;labelBorderColor=#000000;fontColor=#000000;strokeColor=#000000;" parent="141" vertex="1">
                    <mxGeometry x="40" width="140" height="30" as="geometry"/>
                </mxCell>
                <mxCell id="122" value="" style="shape=partialRectangle;html=1;whiteSpace=wrap;collapsible=0;dropTarget=0;pointerEvents=0;fillColor=none;top=0;left=0;bottom=0;right=0;points=[[0,0.5],[1,0.5]];portConstraint=eastwest;labelBackgroundColor=#ffffff;labelBorderColor=#000000;fontColor=#000000;strokeColor=#000000;" parent="118" vertex="1">
                    <mxGeometry y="90" width="180" height="30" as="geometry"/>
                </mxCell>
                <mxCell id="123" value="" style="shape=partialRectangle;html=1;whiteSpace=wrap;connectable=0;fillColor=none;top=0;left=0;bottom=0;right=0;overflow=hidden;labelBackgroundColor=#ffffff;labelBorderColor=#000000;fontColor=#000000;strokeColor=#000000;" parent="122" vertex="1">
                    <mxGeometry width="40" height="30" as="geometry"/>
                </mxCell>
                <mxCell id="124" value="name" style="shape=partialRectangle;html=1;whiteSpace=wrap;connectable=0;fillColor=none;top=0;left=0;bottom=0;right=0;align=left;spacingLeft=6;overflow=hidden;labelBackgroundColor=#ffffff;labelBorderColor=#000000;fontColor=#000000;strokeColor=#000000;" parent="122" vertex="1">
                    <mxGeometry x="40" width="140" height="30" as="geometry"/>
                </mxCell>
                <mxCell id="125" value="" style="shape=partialRectangle;html=1;whiteSpace=wrap;collapsible=0;dropTarget=0;pointerEvents=0;fillColor=none;top=0;left=0;bottom=0;right=0;points=[[0,0.5],[1,0.5]];portConstraint=eastwest;labelBackgroundColor=#ffffff;labelBorderColor=#000000;fontColor=#000000;strokeColor=#000000;" parent="118" vertex="1">
                    <mxGeometry y="120" width="180" height="30" as="geometry"/>
                </mxCell>
                <mxCell id="126" value="" style="shape=partialRectangle;html=1;whiteSpace=wrap;connectable=0;fillColor=none;top=0;left=0;bottom=0;right=0;overflow=hidden;labelBackgroundColor=#ffffff;labelBorderColor=#000000;fontColor=#000000;strokeColor=#000000;" parent="125" vertex="1">
                    <mxGeometry width="40" height="30" as="geometry"/>
                </mxCell>
                <mxCell id="127" value="date" style="shape=partialRectangle;html=1;whiteSpace=wrap;connectable=0;fillColor=none;top=0;left=0;bottom=0;right=0;align=left;spacingLeft=6;overflow=hidden;labelBackgroundColor=#ffffff;labelBorderColor=#000000;fontColor=#000000;strokeColor=#000000;" parent="125" vertex="1">
                    <mxGeometry x="40" width="140" height="30" as="geometry"/>
                </mxCell>
                <mxCell id="128" value="" style="shape=partialRectangle;html=1;whiteSpace=wrap;collapsible=0;dropTarget=0;pointerEvents=0;fillColor=none;top=0;left=0;bottom=0;right=0;points=[[0,0.5],[1,0.5]];portConstraint=eastwest;labelBackgroundColor=#ffffff;labelBorderColor=#000000;fontColor=#000000;strokeColor=#000000;" parent="118" vertex="1">
                    <mxGeometry y="150" width="180" height="30" as="geometry"/>
                </mxCell>
                <mxCell id="129" value="" style="shape=partialRectangle;html=1;whiteSpace=wrap;connectable=0;fillColor=none;top=0;left=0;bottom=0;right=0;overflow=hidden;labelBackgroundColor=#ffffff;labelBorderColor=#000000;fontColor=#000000;strokeColor=#000000;" parent="128" vertex="1">
                    <mxGeometry width="40" height="30" as="geometry"/>
                </mxCell>
                <mxCell id="130" value="duration" style="shape=partialRectangle;html=1;whiteSpace=wrap;connectable=0;fillColor=none;top=0;left=0;bottom=0;right=0;align=left;spacingLeft=6;overflow=hidden;labelBackgroundColor=#ffffff;labelBorderColor=#000000;fontColor=#000000;strokeColor=#000000;" parent="128" vertex="1">
                    <mxGeometry x="40" width="140" height="30" as="geometry"/>
                </mxCell>
                <mxCell id="131" value="" style="shape=partialRectangle;html=1;whiteSpace=wrap;collapsible=0;dropTarget=0;pointerEvents=0;fillColor=none;top=0;left=0;bottom=0;right=0;points=[[0,0.5],[1,0.5]];portConstraint=eastwest;labelBackgroundColor=#ffffff;labelBorderColor=#000000;fontColor=#000000;strokeColor=#000000;" parent="118" vertex="1">
                    <mxGeometry y="180" width="180" height="30" as="geometry"/>
                </mxCell>
                <mxCell id="132" value="" style="shape=partialRectangle;html=1;whiteSpace=wrap;connectable=0;fillColor=none;top=0;left=0;bottom=0;right=0;overflow=hidden;labelBackgroundColor=#ffffff;labelBorderColor=#000000;fontColor=#000000;strokeColor=#000000;" parent="131" vertex="1">
                    <mxGeometry width="40" height="30" as="geometry"/>
                </mxCell>
                <mxCell id="133" value="type" style="shape=partialRectangle;html=1;whiteSpace=wrap;connectable=0;fillColor=none;top=0;left=0;bottom=0;right=0;align=left;spacingLeft=6;overflow=hidden;labelBackgroundColor=#ffffff;labelBorderColor=#000000;fontColor=#000000;strokeColor=#000000;" parent="131" vertex="1">
                    <mxGeometry x="40" width="140" height="30" as="geometry"/>
                </mxCell>
                <mxCell id="137" style="edgeStyle=orthogonalEdgeStyle;rounded=0;orthogonalLoop=1;jettySize=auto;html=1;entryX=0.5;entryY=1;entryDx=0;entryDy=0;endArrow=none;endFill=0;labelBackgroundColor=#ffffff;labelBorderColor=#000000;fontColor=#000000;strokeColor=#000000;" parent="1" target="55" edge="1">
                    <mxGeometry relative="1" as="geometry">
                        <mxPoint x="100" y="970" as="sourcePoint"/>
                        <Array as="points">
                            <mxPoint x="100" y="970"/>
                            <mxPoint x="-70" y="970"/>
                        </Array>
                    </mxGeometry>
                </mxCell>
                <mxCell id="138" value="" style="rhombus;whiteSpace=wrap;html=1;labelBackgroundColor=#ffffff;labelBorderColor=#000000;fontColor=#000000;strokeColor=#000000;" parent="1" vertex="1">
                    <mxGeometry x="-110" y="930" width="80" height="80" as="geometry"/>
                </mxCell>
                <mxCell id="139" value="&lt;font style=&quot;font-size: 26px&quot;&gt;*&lt;/font&gt;" style="text;html=1;fillColor=none;align=center;verticalAlign=middle;whiteSpace=wrap;rounded=0;labelBackgroundColor=#ffffff;labelBorderColor=#000000;fontColor=#000000;strokeColor=#000000;" parent="1" vertex="1">
                    <mxGeometry x="50" y="920" width="40" height="20" as="geometry"/>
                </mxCell>
                <mxCell id="140" value="1" style="text;html=1;fillColor=none;align=center;verticalAlign=middle;whiteSpace=wrap;rounded=0;labelBackgroundColor=#ffffff;labelBorderColor=#000000;fontColor=#000000;strokeColor=#000000;" parent="1" vertex="1">
                    <mxGeometry x="-60" y="860" width="40" height="20" as="geometry"/>
                </mxCell>
                <mxCell id="174" style="edgeStyle=orthogonalEdgeStyle;rounded=0;orthogonalLoop=1;jettySize=auto;html=1;entryX=0.512;entryY=0.997;entryDx=0;entryDy=0;entryPerimeter=0;endArrow=none;endFill=0;labelBackgroundColor=#ffffff;labelBorderColor=#000000;fontColor=#000000;strokeColor=#000000;" parent="1" source="144" target="131" edge="1">
                    <mxGeometry relative="1" as="geometry">
                        <Array as="points">
                            <mxPoint x="-550" y="1100"/>
                            <mxPoint x="192" y="1100"/>
                        </Array>
                    </mxGeometry>
                </mxCell>
                <mxCell id="144" value="Students" style="shape=table;startSize=30;container=1;collapsible=0;childLayout=tableLayout;fixedRows=1;rowLines=0;fontStyle=1;align=center;labelBackgroundColor=#ffffff;labelBorderColor=#000000;fontColor=#000000;strokeColor=#000000;" parent="1" vertex="1">
                    <mxGeometry x="-640" y="300" width="180" height="270" as="geometry"/>
                </mxCell>
                <mxCell id="170" value="" style="shape=partialRectangle;html=1;whiteSpace=wrap;collapsible=0;dropTarget=0;pointerEvents=0;fillColor=none;top=0;left=0;bottom=1;right=0;points=[[0,0.5],[1,0.5]];portConstraint=eastwest;labelBackgroundColor=#ffffff;labelBorderColor=#000000;fontColor=#000000;strokeColor=#000000;" parent="144" vertex="1">
                    <mxGeometry y="30" width="180" height="30" as="geometry"/>
                </mxCell>
                <mxCell id="171" value="Pk" style="shape=partialRectangle;html=1;whiteSpace=wrap;connectable=0;fillColor=none;top=0;left=0;bottom=0;right=0;overflow=hidden;labelBackgroundColor=#ffffff;labelBorderColor=#000000;fontColor=#000000;strokeColor=#000000;" parent="170" vertex="1">
                    <mxGeometry width="40" height="30" as="geometry"/>
                </mxCell>
                <mxCell id="172" value="ID" style="shape=partialRectangle;html=1;whiteSpace=wrap;connectable=0;fillColor=none;top=0;left=0;bottom=0;right=0;align=left;spacingLeft=6;overflow=hidden;labelBackgroundColor=#ffffff;labelBorderColor=#000000;fontColor=#000000;strokeColor=#000000;" parent="170" vertex="1">
                    <mxGeometry x="40" width="140" height="30" as="geometry"/>
                </mxCell>
                <mxCell id="145" value="" style="shape=partialRectangle;html=1;whiteSpace=wrap;collapsible=0;dropTarget=0;pointerEvents=0;fillColor=none;top=0;left=0;bottom=1;right=0;points=[[0,0.5],[1,0.5]];portConstraint=eastwest;labelBackgroundColor=#ffffff;labelBorderColor=#000000;fontColor=#000000;strokeColor=#000000;" parent="144" vertex="1">
                    <mxGeometry y="60" width="180" height="30" as="geometry"/>
                </mxCell>
                <mxCell id="146" value="FK" style="shape=partialRectangle;html=1;whiteSpace=wrap;connectable=0;fillColor=none;top=0;left=0;bottom=0;right=0;overflow=hidden;labelBackgroundColor=#ffffff;labelBorderColor=#000000;fontColor=#000000;strokeColor=#000000;" parent="145" vertex="1">
                    <mxGeometry width="40" height="30" as="geometry"/>
                </mxCell>
                <mxCell id="147" value="Degree_ID" style="shape=partialRectangle;html=1;whiteSpace=wrap;connectable=0;fillColor=none;top=0;left=0;bottom=0;right=0;align=left;spacingLeft=6;overflow=hidden;labelBackgroundColor=#ffffff;labelBorderColor=#000000;fontColor=#000000;strokeColor=#000000;" parent="145" vertex="1">
                    <mxGeometry x="40" width="140" height="30" as="geometry"/>
                </mxCell>
                <mxCell id="148" value="" style="shape=partialRectangle;html=1;whiteSpace=wrap;collapsible=0;dropTarget=0;pointerEvents=0;fillColor=none;top=0;left=0;bottom=0;right=0;points=[[0,0.5],[1,0.5]];portConstraint=eastwest;labelBackgroundColor=#ffffff;labelBorderColor=#000000;fontColor=#000000;strokeColor=#000000;" parent="144" vertex="1">
                    <mxGeometry y="90" width="180" height="30" as="geometry"/>
                </mxCell>
                <mxCell id="149" value="" style="shape=partialRectangle;html=1;whiteSpace=wrap;connectable=0;fillColor=none;top=0;left=0;bottom=0;right=0;overflow=hidden;labelBackgroundColor=#ffffff;labelBorderColor=#000000;fontColor=#000000;strokeColor=#000000;" parent="148" vertex="1">
                    <mxGeometry width="40" height="30" as="geometry"/>
                </mxCell>
                <mxCell id="150" value="first_name" style="shape=partialRectangle;html=1;whiteSpace=wrap;connectable=0;fillColor=none;top=0;left=0;bottom=0;right=0;align=left;spacingLeft=6;overflow=hidden;labelBackgroundColor=#ffffff;labelBorderColor=#000000;fontColor=#000000;strokeColor=#000000;" parent="148" vertex="1">
                    <mxGeometry x="40" width="140" height="30" as="geometry"/>
                </mxCell>
                <mxCell id="151" value="" style="shape=partialRectangle;html=1;whiteSpace=wrap;collapsible=0;dropTarget=0;pointerEvents=0;fillColor=none;top=0;left=0;bottom=0;right=0;points=[[0,0.5],[1,0.5]];portConstraint=eastwest;labelBackgroundColor=#ffffff;labelBorderColor=#000000;fontColor=#000000;strokeColor=#000000;" parent="144" vertex="1">
                    <mxGeometry y="120" width="180" height="30" as="geometry"/>
                </mxCell>
                <mxCell id="152" value="" style="shape=partialRectangle;html=1;whiteSpace=wrap;connectable=0;fillColor=none;top=0;left=0;bottom=0;right=0;overflow=hidden;labelBackgroundColor=#ffffff;labelBorderColor=#000000;fontColor=#000000;strokeColor=#000000;" parent="151" vertex="1">
                    <mxGeometry width="40" height="30" as="geometry"/>
                </mxCell>
                <mxCell id="153" value="last_name" style="shape=partialRectangle;html=1;whiteSpace=wrap;connectable=0;fillColor=none;top=0;left=0;bottom=0;right=0;align=left;spacingLeft=6;overflow=hidden;labelBackgroundColor=#ffffff;labelBorderColor=#000000;fontColor=#000000;strokeColor=#000000;" parent="151" vertex="1">
                    <mxGeometry x="40" width="140" height="30" as="geometry"/>
                </mxCell>
                <mxCell id="154" value="" style="shape=partialRectangle;html=1;whiteSpace=wrap;collapsible=0;dropTarget=0;pointerEvents=0;fillColor=none;top=0;left=0;bottom=0;right=0;points=[[0,0.5],[1,0.5]];portConstraint=eastwest;labelBackgroundColor=#ffffff;labelBorderColor=#000000;fontColor=#000000;strokeColor=#000000;" parent="144" vertex="1">
                    <mxGeometry y="150" width="180" height="30" as="geometry"/>
                </mxCell>
                <mxCell id="155" value="" style="shape=partialRectangle;html=1;whiteSpace=wrap;connectable=0;fillColor=none;top=0;left=0;bottom=0;right=0;overflow=hidden;labelBackgroundColor=#ffffff;labelBorderColor=#000000;fontColor=#000000;strokeColor=#000000;" parent="154" vertex="1">
                    <mxGeometry width="40" height="30" as="geometry"/>
                </mxCell>
                <mxCell id="156" value="serial_number" style="shape=partialRectangle;html=1;whiteSpace=wrap;connectable=0;fillColor=none;top=0;left=0;bottom=0;right=0;align=left;spacingLeft=6;overflow=hidden;labelBackgroundColor=#ffffff;labelBorderColor=#000000;fontColor=#000000;strokeColor=#000000;" parent="154" vertex="1">
                    <mxGeometry x="40" width="140" height="30" as="geometry"/>
                </mxCell>
                <mxCell id="157" value="" style="shape=partialRectangle;html=1;whiteSpace=wrap;collapsible=0;dropTarget=0;pointerEvents=0;fillColor=none;top=0;left=0;bottom=0;right=0;points=[[0,0.5],[1,0.5]];portConstraint=eastwest;labelBackgroundColor=#ffffff;labelBorderColor=#000000;fontColor=#000000;strokeColor=#000000;" parent="144" vertex="1">
                    <mxGeometry y="180" width="180" height="30" as="geometry"/>
                </mxCell>
                <mxCell id="158" value="" style="shape=partialRectangle;html=1;whiteSpace=wrap;connectable=0;fillColor=none;top=0;left=0;bottom=0;right=0;overflow=hidden;labelBackgroundColor=#ffffff;labelBorderColor=#000000;fontColor=#000000;strokeColor=#000000;" parent="157" vertex="1">
                    <mxGeometry width="40" height="30" as="geometry"/>
                </mxCell>
                <mxCell id="159" value="email" style="shape=partialRectangle;html=1;whiteSpace=wrap;connectable=0;fillColor=none;top=0;left=0;bottom=0;right=0;align=left;spacingLeft=6;overflow=hidden;labelBackgroundColor=#ffffff;labelBorderColor=#000000;fontColor=#000000;strokeColor=#000000;" parent="157" vertex="1">
                    <mxGeometry x="40" width="140" height="30" as="geometry"/>
                </mxCell>
                <mxCell id="160" value="" style="shape=partialRectangle;html=1;whiteSpace=wrap;collapsible=0;dropTarget=0;pointerEvents=0;fillColor=none;top=0;left=0;bottom=0;right=0;points=[[0,0.5],[1,0.5]];portConstraint=eastwest;labelBackgroundColor=#ffffff;labelBorderColor=#000000;fontColor=#000000;strokeColor=#000000;" parent="144" vertex="1">
                    <mxGeometry y="210" width="180" height="30" as="geometry"/>
                </mxCell>
                <mxCell id="161" value="" style="shape=partialRectangle;html=1;whiteSpace=wrap;connectable=0;fillColor=none;top=0;left=0;bottom=0;right=0;overflow=hidden;labelBackgroundColor=#ffffff;labelBorderColor=#000000;fontColor=#000000;strokeColor=#000000;" parent="160" vertex="1">
                    <mxGeometry width="40" height="30" as="geometry"/>
                </mxCell>
                <mxCell id="162" value="phone" style="shape=partialRectangle;html=1;whiteSpace=wrap;connectable=0;fillColor=none;top=0;left=0;bottom=0;right=0;align=left;spacingLeft=6;overflow=hidden;labelBackgroundColor=#ffffff;labelBorderColor=#000000;fontColor=#000000;strokeColor=#000000;" parent="160" vertex="1">
                    <mxGeometry x="40" width="140" height="30" as="geometry"/>
                </mxCell>
                <mxCell id="163" value="" style="shape=partialRectangle;html=1;whiteSpace=wrap;collapsible=0;dropTarget=0;pointerEvents=0;fillColor=none;top=0;left=0;bottom=0;right=0;points=[[0,0.5],[1,0.5]];portConstraint=eastwest;labelBackgroundColor=#ffffff;labelBorderColor=#000000;fontColor=#000000;strokeColor=#000000;" parent="144" vertex="1">
                    <mxGeometry y="240" width="180" height="30" as="geometry"/>
                </mxCell>
                <mxCell id="164" value="" style="shape=partialRectangle;html=1;whiteSpace=wrap;connectable=0;fillColor=none;top=0;left=0;bottom=0;right=0;overflow=hidden;labelBackgroundColor=#ffffff;labelBorderColor=#000000;fontColor=#000000;strokeColor=#000000;" parent="163" vertex="1">
                    <mxGeometry width="40" height="30" as="geometry"/>
                </mxCell>
                <mxCell id="165" value="isc_year" style="shape=partialRectangle;html=1;whiteSpace=wrap;connectable=0;fillColor=none;top=0;left=0;bottom=0;right=0;align=left;spacingLeft=6;overflow=hidden;labelBackgroundColor=#ffffff;labelBorderColor=#000000;fontColor=#000000;strokeColor=#000000;" parent="163" vertex="1">
                    <mxGeometry x="40" width="140" height="30" as="geometry"/>
                </mxCell>
                <mxCell id="168" value="1" style="text;html=1;fillColor=none;align=center;verticalAlign=middle;whiteSpace=wrap;rounded=0;labelBackgroundColor=#ffffff;labelBorderColor=#000000;fontColor=#000000;strokeColor=#000000;" parent="1" vertex="1">
                    <mxGeometry x="-210" y="290" width="40" height="20" as="geometry"/>
                </mxCell>
                <mxCell id="169" value="&lt;font style=&quot;font-size: 26px&quot;&gt;*&lt;/font&gt;" style="text;html=1;fillColor=none;align=center;verticalAlign=middle;whiteSpace=wrap;rounded=0;labelBackgroundColor=#ffffff;labelBorderColor=#000000;fontColor=#000000;strokeColor=#000000;" parent="1" vertex="1">
                    <mxGeometry x="-453" y="440" width="40" height="20" as="geometry"/>
                </mxCell>
                <mxCell id="200" style="edgeStyle=orthogonalEdgeStyle;rounded=0;orthogonalLoop=1;jettySize=auto;html=1;entryX=-0.009;entryY=0.077;entryDx=0;entryDy=0;entryPerimeter=0;startArrow=none;startFill=0;endArrow=none;endFill=0;labelBackgroundColor=#ffffff;labelBorderColor=#000000;fontColor=#000000;strokeColor=#000000;" parent="1" source="167" target="16" edge="1">
                    <mxGeometry relative="1" as="geometry"/>
                </mxCell>
                <mxCell id="167" value="" style="rhombus;whiteSpace=wrap;html=1;labelBackgroundColor=#ffffff;labelBorderColor=#000000;fontColor=#000000;strokeColor=#000000;" parent="1" vertex="1">
                    <mxGeometry x="-350" y="280" width="80" height="80" as="geometry"/>
                </mxCell>
                <mxCell id="173" value="" style="edgeStyle=orthogonalEdgeStyle;rounded=0;orthogonalLoop=1;jettySize=auto;html=1;entryX=0.5;entryY=1;entryDx=0;entryDy=0;endArrow=none;labelBackgroundColor=#ffffff;labelBorderColor=#000000;fontColor=#000000;strokeColor=#000000;" parent="1" source="154" target="167" edge="1">
                    <mxGeometry relative="1" as="geometry">
                        <mxPoint x="-460" y="465" as="sourcePoint"/>
                        <mxPoint x="-172.16000000000008" y="318.36" as="targetPoint"/>
                    </mxGeometry>
                </mxCell>
                <mxCell id="175" value="" style="rhombus;whiteSpace=wrap;html=1;labelBackgroundColor=#ffffff;labelBorderColor=#000000;fontColor=#000000;strokeColor=#000000;" parent="1" vertex="1">
                    <mxGeometry x="-590" y="800" width="80" height="80" as="geometry"/>
                </mxCell>
                <mxCell id="176" value="&lt;font style=&quot;font-size: 26px&quot;&gt;*&lt;/font&gt;" style="text;html=1;fillColor=none;align=center;verticalAlign=middle;whiteSpace=wrap;rounded=0;labelBackgroundColor=#ffffff;labelBorderColor=#000000;fontColor=#000000;strokeColor=#000000;" parent="1" vertex="1">
                    <mxGeometry x="-550" y="580" width="40" height="20" as="geometry"/>
                </mxCell>
                <mxCell id="177" value="&lt;font style=&quot;font-size: 26px&quot;&gt;*&lt;/font&gt;" style="text;html=1;fillColor=none;align=center;verticalAlign=middle;whiteSpace=wrap;rounded=0;labelBackgroundColor=#ffffff;labelBorderColor=#000000;fontColor=#000000;strokeColor=#000000;" parent="1" vertex="1">
                    <mxGeometry x="150" y="1070" width="40" height="20" as="geometry"/>
                </mxCell>
                <mxCell id="178" value="Exam_session_Student" style="shape=table;startSize=30;container=1;collapsible=0;childLayout=tableLayout;fixedRows=1;rowLines=0;fontStyle=1;align=center;fillColor=#008a00;labelBackgroundColor=#ffffff;labelBorderColor=#000000;fontColor=#000000;strokeColor=#000000;" parent="1" vertex="1">
                    <mxGeometry x="-490" y="780" width="180" height="210" as="geometry"/>
                </mxCell>
                <mxCell id="179" value="" style="shape=partialRectangle;html=1;whiteSpace=wrap;collapsible=0;dropTarget=0;pointerEvents=0;fillColor=none;top=0;left=0;bottom=1;right=0;points=[[0,0.5],[1,0.5]];portConstraint=eastwest;labelBackgroundColor=#ffffff;labelBorderColor=#000000;fontColor=#000000;strokeColor=#000000;" parent="178" vertex="1">
                    <mxGeometry y="30" width="180" height="30" as="geometry"/>
                </mxCell>
                <mxCell id="180" value="PK" style="shape=partialRectangle;html=1;whiteSpace=wrap;connectable=0;fillColor=none;top=0;left=0;bottom=0;right=0;overflow=hidden;labelBackgroundColor=#ffffff;labelBorderColor=#000000;fontColor=#000000;strokeColor=#000000;" parent="179" vertex="1">
                    <mxGeometry width="40" height="30" as="geometry"/>
                </mxCell>
                <mxCell id="181" value="Exam_session_ID" style="shape=partialRectangle;html=1;whiteSpace=wrap;connectable=0;fillColor=none;top=0;left=0;bottom=0;right=0;align=left;spacingLeft=6;overflow=hidden;labelBackgroundColor=#ffffff;labelBorderColor=#000000;fontColor=#000000;strokeColor=#000000;" parent="179" vertex="1">
                    <mxGeometry x="40" width="140" height="30" as="geometry"/>
                </mxCell>
                <mxCell id="182" value="" style="shape=partialRectangle;html=1;whiteSpace=wrap;collapsible=0;dropTarget=0;pointerEvents=0;fillColor=none;top=0;left=0;bottom=1;right=0;points=[[0,0.5],[1,0.5]];portConstraint=eastwest;labelBackgroundColor=#ffffff;labelBorderColor=#000000;fontColor=#000000;strokeColor=#000000;" parent="178" vertex="1">
                    <mxGeometry y="60" width="180" height="30" as="geometry"/>
                </mxCell>
                <mxCell id="183" value="PK" style="shape=partialRectangle;html=1;whiteSpace=wrap;connectable=0;fillColor=none;top=0;left=0;bottom=0;right=0;overflow=hidden;labelBackgroundColor=#ffffff;labelBorderColor=#000000;fontColor=#000000;strokeColor=#000000;" parent="182" vertex="1">
                    <mxGeometry width="40" height="30" as="geometry"/>
                </mxCell>
                <mxCell id="184" value="Student_ID" style="shape=partialRectangle;html=1;whiteSpace=wrap;connectable=0;fillColor=none;top=0;left=0;bottom=0;right=0;align=left;spacingLeft=6;overflow=hidden;labelBackgroundColor=#ffffff;labelBorderColor=#000000;fontColor=#000000;strokeColor=#000000;" parent="182" vertex="1">
                    <mxGeometry x="40" width="140" height="30" as="geometry"/>
                </mxCell>
                <mxCell id="185" value="" style="shape=partialRectangle;html=1;whiteSpace=wrap;collapsible=0;dropTarget=0;pointerEvents=0;fillColor=none;top=0;left=0;bottom=0;right=0;points=[[0,0.5],[1,0.5]];portConstraint=eastwest;labelBackgroundColor=#ffffff;labelBorderColor=#000000;fontColor=#000000;strokeColor=#000000;" parent="178" vertex="1">
                    <mxGeometry y="90" width="180" height="30" as="geometry"/>
                </mxCell>
                <mxCell id="186" value="" style="shape=partialRectangle;html=1;whiteSpace=wrap;connectable=0;fillColor=none;top=0;left=0;bottom=0;right=0;overflow=hidden;labelBackgroundColor=#ffffff;labelBorderColor=#000000;fontColor=#000000;strokeColor=#000000;" parent="185" vertex="1">
                    <mxGeometry width="40" height="30" as="geometry"/>
                </mxCell>
                <mxCell id="187" value="Credits" style="shape=partialRectangle;html=1;whiteSpace=wrap;connectable=0;fillColor=none;top=0;left=0;bottom=0;right=0;align=left;spacingLeft=6;overflow=hidden;labelBackgroundColor=#ffffff;labelBorderColor=#000000;fontColor=#000000;strokeColor=#000000;" parent="185" vertex="1">
                    <mxGeometry x="40" width="140" height="30" as="geometry"/>
                </mxCell>
                <mxCell id="191" value="" style="shape=partialRectangle;html=1;whiteSpace=wrap;collapsible=0;dropTarget=0;pointerEvents=0;fillColor=none;top=0;left=0;bottom=0;right=0;points=[[0,0.5],[1,0.5]];portConstraint=eastwest;labelBackgroundColor=#ffffff;labelBorderColor=#000000;fontColor=#000000;strokeColor=#000000;" parent="178" vertex="1">
                    <mxGeometry y="120" width="180" height="30" as="geometry"/>
                </mxCell>
                <mxCell id="192" value="" style="shape=partialRectangle;html=1;whiteSpace=wrap;connectable=0;fillColor=none;top=0;left=0;bottom=0;right=0;overflow=hidden;labelBackgroundColor=#ffffff;labelBorderColor=#000000;fontColor=#000000;strokeColor=#000000;" parent="191" vertex="1">
                    <mxGeometry width="40" height="30" as="geometry"/>
                </mxCell>
                <mxCell id="193" value="is_present" style="shape=partialRectangle;html=1;whiteSpace=wrap;connectable=0;fillColor=none;top=0;left=0;bottom=0;right=0;align=left;spacingLeft=6;overflow=hidden;labelBackgroundColor=#ffffff;labelBorderColor=#000000;fontColor=#000000;strokeColor=#000000;" parent="191" vertex="1">
                    <mxGeometry x="40" width="140" height="30" as="geometry"/>
                </mxCell>
                <mxCell id="197" value="" style="shape=partialRectangle;html=1;whiteSpace=wrap;collapsible=0;dropTarget=0;pointerEvents=0;fillColor=none;top=0;left=0;bottom=0;right=0;points=[[0,0.5],[1,0.5]];portConstraint=eastwest;labelBackgroundColor=#ffffff;labelBorderColor=#000000;fontColor=#000000;strokeColor=#000000;" parent="178" vertex="1">
                    <mxGeometry y="150" width="180" height="30" as="geometry"/>
                </mxCell>
                <mxCell id="198" value="" style="shape=partialRectangle;html=1;whiteSpace=wrap;connectable=0;fillColor=none;top=0;left=0;bottom=0;right=0;overflow=hidden;labelBackgroundColor=#ffffff;labelBorderColor=#000000;fontColor=#000000;strokeColor=#000000;" parent="197" vertex="1">
                    <mxGeometry width="40" height="30" as="geometry"/>
                </mxCell>
                <mxCell id="199" value="is_accepted" style="shape=partialRectangle;html=1;whiteSpace=wrap;connectable=0;fillColor=none;top=0;left=0;bottom=0;right=0;align=left;spacingLeft=6;overflow=hidden;labelBackgroundColor=#ffffff;labelBorderColor=#000000;fontColor=#000000;strokeColor=#000000;" parent="197" vertex="1">
                    <mxGeometry x="40" width="140" height="30" as="geometry"/>
                </mxCell>
                <mxCell id="194" value="" style="shape=partialRectangle;html=1;whiteSpace=wrap;collapsible=0;dropTarget=0;pointerEvents=0;fillColor=none;top=0;left=0;bottom=0;right=0;points=[[0,0.5],[1,0.5]];portConstraint=eastwest;labelBackgroundColor=#ffffff;labelBorderColor=#000000;fontColor=#000000;strokeColor=#000000;" parent="178" vertex="1">
                    <mxGeometry y="180" width="180" height="30" as="geometry"/>
                </mxCell>
                <mxCell id="195" value="" style="shape=partialRectangle;html=1;whiteSpace=wrap;connectable=0;fillColor=none;top=0;left=0;bottom=0;right=0;overflow=hidden;labelBackgroundColor=#ffffff;labelBorderColor=#000000;fontColor=#000000;strokeColor=#000000;" parent="194" vertex="1">
                    <mxGeometry width="40" height="30" as="geometry"/>
                </mxCell>
                <mxCell id="196" value="is_rejected" style="shape=partialRectangle;html=1;whiteSpace=wrap;connectable=0;fillColor=none;top=0;left=0;bottom=0;right=0;align=left;spacingLeft=6;overflow=hidden;labelBackgroundColor=#ffffff;labelBorderColor=#000000;fontColor=#000000;strokeColor=#000000;" parent="194" vertex="1">
                    <mxGeometry x="40" width="140" height="30" as="geometry"/>
                </mxCell>
            </root>
        </mxGraphModel>
    </diagram>
</mxfile>